HIERARCHY
ROOT Hips
{
	OFFSET 0.00000 0.00000 0.00000
	CHANNELS 6 Xposition Yposition Zposition Zrotation Yrotation Xrotation 
	JOINT LHipJoint
	{
		OFFSET 0 0 0
		CHANNELS 3 Zrotation Yrotation Xrotation
		JOINT LeftHip
		{
			OFFSET 1.58161 -1.81893 0.78828
			CHANNELS 3 Zrotation Yrotation Xrotation
			JOINT LeftKnee
			{
				OFFSET 2.53374 -6.96141 0.00000
				CHANNELS 3 Zrotation Yrotation Xrotation
				JOINT LeftAnkle
				{
					OFFSET 2.63509 -7.23986 0.00000
					CHANNELS 3 Zrotation Yrotation Xrotation
					JOINT LeftToe
					{
						OFFSET 0.14115 -0.38781 2.05350
						CHANNELS 3 Zrotation Yrotation Xrotation
						End Site
						{
							OFFSET 0.00000 -0.00000 1.05543
						}
					}
				}
			}
		}
	}
	JOINT RHipJoint
	{
		OFFSET 0 0 0
		CHANNELS 3 Zrotation Yrotation Xrotation
		JOINT RightHip
		{
			OFFSET -1.11138 -1.81893 0.78828
			CHANNELS 3 Zrotation Yrotation Xrotation
			JOINT RightKnee
			{
				OFFSET -2.58392 -7.09926 0.00000
				CHANNELS 3 Zrotation Yrotation Xrotation
				JOINT RightAnkle
				{
					OFFSET -2.66423 -7.31992 0.00000
					CHANNELS 3 Zrotation Yrotation Xrotation
					JOINT RightToe
					{
						OFFSET -0.18831 -0.51739 2.12114
						CHANNELS 3 Zrotation Yrotation Xrotation
						End Site
						{
							OFFSET -0.00000 -0.00000 1.09845
						}
					}
				}
			}
		}
	}
	JOINT lowerback
	{
		OFFSET 0 0 0
		CHANNELS 3 Zrotation Yrotation Xrotation
		JOINT Chest
		{
			OFFSET -0.01511 1.97958 -0.08829
			CHANNELS 3 Zrotation Yrotation Xrotation
			JOINT Chest2
			{
				OFFSET 0.08344 1.97334 -0.04330
				CHANNELS 3 Zrotation Yrotation Xrotation
				JOINT lowerneck
				{
					OFFSET 0 0 0
					CHANNELS 3 Zrotation Yrotation Xrotation
					JOINT Neck
					{
						OFFSET 0.00559 1.76246 0.31246
						CHANNELS 3 Zrotation Yrotation Xrotation
						JOINT Head
						{
							OFFSET -0.07011 1.80354 -0.30524
							CHANNELS 3 Zrotation Yrotation Xrotation
							End Site
							{
								OFFSET -0.02385 1.83547 -0.13906
							}
						}
					}
				}
				JOINT LeftCollar
				{
					OFFSET 0 0 0
					CHANNELS 3 Zrotation Yrotation Xrotation
					JOINT LeftShoulder
					{
						OFFSET 3.20667 1.30156 -0.60240
CHANNELS 3 Zrotation Xrotation Yrotation
						JOINT LeftElbow
						{
OFFSET 0 -4.956630 0.000000
CHANNELS 3 Zrotation Xrotation Yrotation
							JOINT LeftWrist
							{
OFFSET 0 -3.381770 0.000000
CHANNELS 3 Zrotation Xrotation Yrotation
								JOINT lhand
								{
									OFFSET 0 0 0
CHANNELS 3 Zrotation Xrotation Yrotation
									JOINT LFingers
									{
OFFSET 0 -0.662910 0.000000
CHANNELS 3 Zrotation Xrotation Yrotation
										End Site
										{
OFFSET 0 -0.534450 0.000000
										}
									}
								}
								JOINT LThumb
								{
OFFSET 0 0.000000 0.000000
CHANNELS 3 Zrotation Xrotation Yrotation
									End Site
									{
OFFSET 0 -0.542610 0.542610
									}
								}
							}
						}
					}
				}
				JOINT RightCollar
				{
					OFFSET 0 0 0
					CHANNELS 3 Zrotation Yrotation Xrotation
					JOINT RightShoulder
					{
						OFFSET -3.06877 1.34672 -0.60964
CHANNELS 3 Zrotation Xrotation Yrotation
						JOINT RightElbow
						{
OFFSET 0 -5.083650 0.000000
CHANNELS 3 Zrotation Xrotation Yrotation
							JOINT RightWrist
							{
OFFSET 0 -3.359840 0.000000
CHANNELS 3 Zrotation Xrotation Yrotation
								JOINT rhand
								{
									OFFSET 0 0 0
CHANNELS 3 Zrotation Xrotation Yrotation
									JOINT RFingers
									{
OFFSET 0 -0.820760 0.000000
CHANNELS 3 Zrotation Xrotation Yrotation
										End Site
										{
OFFSET 0 -0.661720 0.000000
										}
									}
								}
								JOINT RThumb
								{
OFFSET 0 0.000000 0.000000
CHANNELS 3 Zrotation Xrotation Yrotation
									End Site
									{
OFFSET 0 -0.671820 0.671820
									}
								}
							}
						}
					}
				}
			}
		}
	}
}
MOTION
Frames: 8
Frame Time: 0.008333333333333333
-0.967328 17.006957 -3.417150 24.767451 25.078970 85.875893 0.000000 0.000000 0.000000 -1.624533 -19.268500 -58.415724 2.953529 10.619337 31.006708 0.340185 -4.085900 13.292187 0.299003 -3.508281 -9.697898 0.000000 0.000000 0.000000 -11.609087 3.836158 -104.853574 -4.934582 -13.309496 40.538832 0.441962 -12.783838 -10.269620 -1.311283 -7.251192 20.462741 7.782328 4.897242 17.545078 11.933331 7.442359 13.209440 7.514847 3.671816 3.955838 0.476943 -12.882332 -9.094434 1.843376 -17.961009 -12.150272 0.381023 -9.340339 -2.269820 0.000000 0.000000 0.000000 0.184004 -14.168550 -68.421643 110.100398 -58.416938 77.314937 14.224628 -9.700905 -28.384308 0.000000 0.000000 0.000000 -7.125000 0.000000 0.000000 -18.358096 58.161416 6.043874 0.000000 0.000000 0.000000 -121.275157 -37.302295 -37.263410 -10.344340 -17.276355 -1.575678 -38.809806 14.988173 -10.487898 0.000000 0.000000 0.000000 7.125000 0.000000 0.000000 -8.157000 16.700451 -5.526912
-0.968533 17.029475 -3.412960 24.588807 25.083817 85.737570 0.000000 0.000000 0.000000 -1.701571 -19.056710 -58.193449 2.979928 10.662444 31.149807 0.331148 -4.460774 13.439949 0.357706 -3.840887 -10.629587 0.000000 0.000000 0.000000 -11.668144 4.048915 -104.531344 -4.842031 -13.203449 40.135313 0.455543 -12.897224 -10.189730 -1.420641 -7.536384 21.315205 7.750895 4.934475 17.541755 11.922527 7.483823 13.199462 7.512172 3.689937 3.939747 0.545330 -12.878398 -9.104136 1.802207 -17.961950 -12.102402 0.357144 -9.341653 -2.262589 0.000000 0.000000 0.000000 0.263020 -14.200484 -68.319997 110.277401 -58.387838 77.465697 14.100900 -9.891272 -28.409232 0.000000 0.000000 0.000000 -7.125000 0.000000 0.000000 -18.503622 58.157874 6.092857 0.000000 0.000000 0.000000 -120.594141 -37.163725 -34.989125 -10.407870 -17.374780 -1.594803 -39.198232 13.912227 -10.827218 0.000000 0.000000 0.000000 7.125000 0.000000 0.000000 -8.367263 16.212653 -5.760824
-0.966281 17.052695 -3.410140 24.478706 25.096635 85.583782 0.000000 0.000000 0.000000 -1.746289 -18.975913 -57.922947 3.004866 10.702867 31.284259 0.334149 -4.610625 13.599322 0.350635 -3.798130 -10.510118 0.000000 0.000000 0.000000 -11.722092 4.200232 -104.152681 -4.755244 -13.102563 39.753842 0.478396 -13.078896 -10.024828 -1.469328 -7.659993 21.686194 7.768441 4.928980 17.559978 11.899357 7.481809 13.179582 7.472934 3.690688 3.913354 0.524882 -12.870929 -9.134370 1.899658 -17.933165 -11.980727 0.378567 -9.326315 -2.204865 0.000000 0.000000 0.000000 0.325603 -14.225153 -68.211055 110.441858 -58.360665 77.605745 13.986066 -9.950271 -28.692053 0.000000 0.000000 0.000000 -7.125000 0.000000 0.000000 -18.813812 58.400482 6.310284 0.000000 0.000000 0.000000 -119.788932 -36.870659 -31.980946 -10.587456 -17.653119 -1.648621 -39.206319 11.878733 -11.279383 0.000000 0.000000 0.000000 7.125000 0.000000 0.000000 -8.300164 15.647325 -5.814871
-0.960776 17.073890 -3.408733 24.431855 25.060662 85.431730 0.000000 0.000000 0.000000 -1.835209 -19.023302 -57.631089 3.029985 10.743372 31.419329 0.352795 -4.496683 13.785079 0.289175 -3.457216 -9.554437 0.000000 0.000000 0.000000 -11.789159 4.279522 -103.759168 -4.671337 -13.003640 39.382304 0.500790 -13.254551 -9.853931 -1.442069 -7.591637 21.480619 7.789834 4.867256 17.586299 11.825518 7.411060 13.144703 7.383179 3.660891 3.877790 0.450438 -12.835308 -9.190483 2.066710 -17.850173 -11.793645 0.421481 -9.281381 -2.108959 0.000000 0.000000 0.000000 0.417446 -14.251577 -68.019419 110.382389 -58.370507 77.555061 14.082028 -9.908682 -28.960594 0.000000 0.000000 0.000000 -7.125000 0.000000 0.000000 -18.897960 58.675625 6.465135 0.000000 0.000000 0.000000 -118.885678 -36.896813 -29.616796 -10.701338 -17.828854 -1.683433 -38.984187 10.396303 -11.823656 0.000000 0.000000 0.000000 7.125000 0.000000 0.000000 -8.063344 15.009451 -5.757905
-0.950606 17.092429 -3.410033 24.494383 25.008698 85.315382 0.000000 0.000000 0.000000 -1.963116 -19.232337 -57.346141 3.053478 10.781099 31.545196 0.364879 -4.458197 13.931189 0.273849 -3.365408 -9.297893 0.000000 0.000000 0.000000 -11.852967 4.228296 -103.356998 -4.590102 -12.906574 39.020068 0.508005 -13.285332 -9.709205 -1.412949 -7.518017 21.259350 7.844374 4.768175 17.565952 11.731850 7.294069 13.086039 7.262674 3.612166 3.850070 0.427387 -12.819864 -9.220133 2.175956 -17.807334 -11.647488 0.445292 -9.257812 -2.042220 0.000000 0.000000 0.000000 0.506336 -14.301727 -67.823483 110.093843 -58.417870 77.309264 14.274796 -9.921657 -29.075288 0.000000 0.000000 0.000000 -7.125000 0.000000 0.000000 -18.776244 58.826911 6.490465 0.000000 0.000000 0.000000 -117.877961 -36.926843 -27.137258 -10.809951 -17.996292 -1.716772 -38.766736 9.204954 -12.094025 0.000000 0.000000 0.000000 7.125000 0.000000 0.000000 -7.874257 14.714096 -5.670714
-0.948723 17.112984 -3.409020 24.350351 24.999373 85.115553 0.000000 0.000000 0.000000 -2.100302 -19.107961 -57.130037 3.078629 10.821210 31.679395 0.361629 -4.722510 14.087138 0.296811 -3.501808 -9.679343 0.000000 0.000000 0.000000 -11.850601 4.404240 -103.007400 -4.508522 -12.807866 38.653519 0.505754 -13.229095 -9.589618 -1.422027 -7.540688 21.327600 7.806344 4.722654 17.578089 11.641647 7.237599 13.023438 7.182790 3.586565 3.782384 0.387341 -12.811701 -9.201363 2.306947 -17.773039 -11.555028 0.484008 -9.238546 -1.997601 0.000000 0.000000 0.000000 0.584173 -14.302771 -67.471784 109.705155 -58.480618 76.978083 14.202532 -10.043039 -29.003860 0.000000 0.000000 0.000000 -7.125000 0.000000 0.000000 -18.802095 58.743402 6.461524 0.000000 0.000000 0.000000 -116.764582 -37.357934 -25.520639 -10.795923 -17.974536 -1.712588 -38.871370 8.930626 -12.483081 0.000000 0.000000 0.000000 7.125000 0.000000 0.000000 -7.880506 14.212273 -5.760319
-0.945045 17.137066 -3.407378 24.232958 25.022503 84.816802 0.000000 0.000000 0.000000 -2.261997 -19.009152 -56.791989 3.104408 10.862171 31.816530 0.356182 -4.933883 14.175670 0.333395 -3.709622 -10.261276 0.000000 0.000000 0.000000 -11.861718 4.578349 -102.496691 -4.426966 -12.707731 38.284163 0.509040 -13.281373 -9.656103 -1.495386 -7.724002 21.879304 7.767143 4.707618 17.621771 11.603076 7.221695 12.999793 7.156540 3.578809 3.733126 0.445257 -12.832476 -9.289902 2.333303 -17.796802 -11.400022 0.468605 -9.250572 -1.934664 0.000000 0.000000 0.000000 0.584045 -14.281620 -67.238981 109.355892 -58.535934 76.680231 13.872743 -10.230064 -28.855927 0.000000 0.000000 0.000000 -7.125000 0.000000 0.000000 -19.043551 58.530264 6.450509 0.000000 0.000000 0.000000 -115.643258 -37.077822 -22.160599 -11.029003 -18.332635 -1.785031 -39.057655 6.606091 -13.274647 0.000000 0.000000 0.000000 7.125000 0.000000 0.000000 -7.872978 13.197132 -5.923514
-0.945539 17.162596 -3.404222 23.917595 25.045076 84.377039 0.000000 0.000000 0.000000 -2.467122 -18.656906 -56.403174 3.132576 10.906710 31.965796 0.353141 -5.088292 14.256090 0.369108 -3.902138 -10.801627 0.000000 0.000000 0.000000 -11.752999 4.953801 -101.992318 -4.344983 -12.605778 37.910308 0.512885 -13.329629 -9.690620 -1.573505 -7.914476 22.454837 7.684835 4.719814 17.789999 11.537135 7.248443 12.974471 7.104214 3.589049 3.611367 0.475572 -12.793830 -9.491204 2.358449 -17.731178 -11.124004 0.442371 -9.213691 -1.811836 0.000000 0.000000 0.000000 0.672807 -14.165621 -66.926343 109.146799 -58.568379 76.501843 13.867679 -10.256406 -28.862536 0.000000 0.000000 0.000000 -7.125000 0.000000 0.000000 -19.053345 58.535392 6.456244 0.000000 0.000000 0.000000 -114.378439 -37.577374 -20.510668 -10.985266 -18.265592 -1.771318 -38.940669 5.934041 -14.409664 0.000000 0.000000 0.000000 7.125000 0.000000 0.000000 -7.604907 11.821825 -5.939097
